<?xml version="1.0" encoding="utf-8"?>
<!-- Generator: Adobe Illustrator 25.0.0, SVG Export Plug-In . SVG Version: 6.00 Build 0)  -->
<svg version="1.1" id="Ebene_1" xmlns="http://www.w3.org/2000/svg" xmlns:xlink="http://www.w3.org/1999/xlink" x="0px" y="0px"
	 width="31.8px" height="37px" viewBox="0 0 31.8 37" style="enable-background:new 0 0 31.8 37;" xml:space="preserve">
<style type="text/css">
	.st0{fill:#FFFFFF;}
</style>
<polyline class="st0" points="7.6,23.8 16.3,28.8 25.1,23.8 25.1,13.6 16.3,8.6 7.6,13.6 "/>
<path class="st0" d="M4.3,10.4l12.1-7l12.2,7.1l3.1-1.8L17.1,0.3C16.6,0,16,0,15.6,0.3L1.2,8.6L4.3,10.4z"/>
<path class="st0" d="M15.1,33.3l-12-6.9V12.4L0,10.6v16.6c0,0.6,0.3,1.1,0.8,1.4l14.4,8.3L15.1,33.3z"/>
<polygon class="st0" points="28.4,27 17.5,33.3 17.5,36.9 31.5,28.8 "/>
</svg>
