<?xml version="1.0" encoding="utf-8"?>
<!-- Generator: Adobe Illustrator 25.0.0, SVG Export Plug-In . SVG Version: 6.00 Build 0)  -->
<svg version="1.1" id="Ebene_1" xmlns="http://www.w3.org/2000/svg" xmlns:xlink="http://www.w3.org/1999/xlink" x="0px" y="0px"
	 width="85.3px" height="37px" viewBox="0 0 85.3 37" style="enable-background:new 0 0 85.3 37;" xml:space="preserve">
<style type="text/css">
	.st0{fill:#009B31;}
</style>
<path id="path6593" class="st0" d="M85.3,1.8V0H66.4l0,0c0,0,0,0,0,0c-1.4,0-3.8,0-5.9,0.8c0,0,0.5,1.2,0.5,2.3c0,1-0.5,2.1-0.5,2.1
	s0,8.6,0,9.5c0,0.4,0.2,0.6,0.4,0.8c0.5,0.2,1.1,0.4,1.8,0.6c0.4,0.2,0.9-0.2,1.2-0.7c0.9-1.5,1.8-3.4,1.8-3.4s1-0.5,1.4-1.5
	c0.4-0.9,0.4-1.4,0.4-1.4c3.2,4.6,3.2,11,3.2,11s-3.5-0.8-5.3-1.2c-1.2-0.3-2.6-0.6-3.2-0.6c-0.8,0-1.5,0.5-1.6,1.3
	c0,0.4,0.2,1.1,0.6,2.2c0.4,1.2,0.5,1.3,1.1,2.9H65l-0.6-2.5c2.2,0.7,3,1.8,5.4,2.5h15.5v-7.9c0,0-0.5-0.9-1.2-2.1h1.2v-1.8H83
	c-0.3-0.5-0.6-0.9-0.9-1.4h3.1V9.7H81c-0.2-0.4-0.5-0.7-0.7-1c-0.1-0.1-0.2-0.3-0.3-0.4h5.2V6.5h-6.6c-0.4-0.5-0.8-1-1.2-1.4h7.8
	V3.2h-9.7c-0.7-0.6-1.3-1.1-1.9-1.4H85.3z M85.3,35.7v-3.9h-2.8v0.9h1.4v2.7c-0.1,0.2-0.5,0.3-0.9,0.3c-1.7,0-2-1.6-2-3.4
	c0-1,0-3,1.6-3c1.1,0,1.1,0.9,1.2,1.4h1.6c0-1.5-1.1-2.1-2.7-2.1c-2.4,0-3.1,1.6-3.1,3.9c0,2.3,1,4,3.4,4
	C83.8,36.4,84.7,36.1,85.3,35.7z M77,36.3v-7.7h-1.2v5.7h0l-3-5.7h-1.6v7.7h1.2v-6h0l3.1,6H77z M68.7,33.7v-5.1h-1.5v5.1
	c0,1.2-0.2,2-1.3,2c-1.1,0-1.3-0.8-1.3-2v-5.1h-1.5v5.1c0,1.4,0.3,2.7,2.8,2.7C68.4,36.4,68.7,35,68.7,33.7z M59.4,30.7
	c0,1.1-0.7,1.4-1.8,1.4h-0.3v-2.7h0.3C58.5,29.4,59.4,29.5,59.4,30.7z M61.1,36.3l-0.4-2c-0.2-0.9-0.3-1.6-1.5-1.8v0
	c0.7-0.2,1.6-0.6,1.6-1.8c0-1.8-1.5-2-3.2-2h-1.8v7.7h1.5v-3.4h0.5c1.2,0,1.4,0.5,1.6,1.9l0.3,1.5L61.1,36.3L61.1,36.3z M53.6,36.3
	v-0.9h-3.1v-2.6h2.9v-0.9h-2.9v-2.4h3v-0.9H49v7.7L53.6,36.3L53.6,36.3z M46.4,36.3v-7.7H45v3.2h-2.7v-3.2h-1.5v7.7h1.5v-3.6H45v3.6
	H46.4z M39,30.7c0-1.3-0.9-2.2-2.7-2.2c-2.3,0-3.1,1.8-3.1,3.8c0,2.2,0.9,4.1,3.4,4.1c0.9,0,1.7-0.3,2.2-0.5v-1.2
	c-0.3,0.2-0.9,0.8-1.9,0.8c-2,0-2.1-2.5-2.1-3.4c0-1,0.2-2.8,1.5-2.8c0.9,0,1.1,0.9,1.1,1.5L39,30.7L39,30.7z M30.8,36.3v-7.7h-1.5
	v7.7H30.8z M27.3,34.1c0-2.4-3.8-2.5-3.8-4c0-0.5,0.4-0.8,1.1-0.8c0.9,0,1.9,0.4,2.1,0.5v-1.2c-0.3-0.1-1.1-0.2-1.9-0.2
	c-1.7,0-2.6,0.7-2.6,2c0,2.4,3.6,2.4,3.6,4.1c0,0.7-0.7,0.9-1.2,0.9c-0.9,0-1.7-0.5-2.3-0.8v1.4c0.3,0.1,1.2,0.3,2.1,0.3
	C26,36.4,27.3,35.8,27.3,34.1z M18.7,30.7c0,1.1-0.7,1.4-1.8,1.4h-0.3v-2.7h0.3C17.8,29.4,18.7,29.5,18.7,30.7z M20.5,36.3l-0.4-2
	c-0.2-0.9-0.3-1.6-1.5-1.8v0c0.7-0.2,1.6-0.6,1.6-1.8c0-1.8-1.5-2-3.2-2h-1.8v7.7h1.5v-3.4h0.5c1.2,0,1.4,0.5,1.6,1.9l0.3,1.5
	L20.5,36.3L20.5,36.3z M13,36.3v-0.9H9.9v-2.6h2.9v-0.9H9.9v-2.4h3v-0.9H8.4v7.7L13,36.3L13,36.3z M6.8,28.6H5.5l-2,5.9h0l-2-5.9H0
	l2.6,7.7h1.5L6.8,28.6z M34.1,0H27l-5,13.8L17,0H9.9l9.9,24.8h4.4L34.1,0z M16,24.8l-2.2-5.5H6.6V0H0v24.8L16,24.8L16,24.8z
	 M56.7,24.8h-6.6v-11l-4.4,11h-6.6v-11l-4.4,11h-6.6L38,0h6.6v13.8L50.1,0h6.6L56.7,24.8"/>
</svg>
