<svg xmlns="http://www.w3.org/2000/svg" xmlns:xlink="http://www.w3.org/1999/xlink" width="80.04" height="93.88" viewBox="0 0 80.04 93.88"><defs><style>.cls-1{fill:url(#Unbenannter_Verlauf_425);}.cls-2{fill:url(#Unbenannter_Verlauf_425-2);}.cls-3{fill:url(#Unbenannter_Verlauf_425-3);}.cls-4{fill:url(#Unbenannter_Verlauf_425-4);}</style><linearGradient id="Unbenannter_Verlauf_425" x1="-0.56" y1="13.04" x2="81.44" y2="13.04" gradientUnits="userSpaceOnUse"><stop offset="0" stop-color="#c0069b"/><stop offset="0.7" stop-color="#ec4016"/><stop offset="1" stop-color="#faae1d"/></linearGradient><linearGradient id="Unbenannter_Verlauf_425-2" x1="-0.56" y1="47.67" x2="81.44" y2="47.67" xlink:href="#Unbenannter_Verlauf_425"/><linearGradient id="Unbenannter_Verlauf_425-3" x1="-0.56" y1="81.57" x2="81.44" y2="81.57" xlink:href="#Unbenannter_Verlauf_425"/><linearGradient id="Unbenannter_Verlauf_425-4" x1="-0.56" y1="60.79" x2="81.44" y2="60.79" xlink:href="#Unbenannter_Verlauf_425"/></defs><g id="Ebene_2" data-name="Ebene 2"><g id="Ebene_1-2" data-name="Ebene 1"><path class="cls-1" d="M80,21.43,43.88.55a4.11,4.11,0,0,0-4.1,0L3.63,21.43l8.05,4.65L41.83,8.67,72,26.08Z"/><polygon class="cls-2" points="19.4 60.62 41.83 73.57 64.27 60.62 64.27 34.72 41.83 21.77 19.4 34.72 19.4 60.62"/><polygon class="cls-3" points="45.46 84.58 45.46 93.88 80.04 73.92 71.98 69.26 45.46 84.58"/><path class="cls-4" d="M0,69.46A4.11,4.11,0,0,0,2.05,73L38.21,93.88v-9.3L8.06,67.17V32.36L0,27.7Z"/></g></g></svg>